<?xml version="1.0" standalone="no"?>
<!DOCTYPE svg PUBLIC "-//W3C//DTD SVG 20010904//EN"
 "http://www.w3.org/TR/2001/REC-SVG-20010904/DTD/svg10.dtd">
<svg version="1.0" xmlns="http://www.w3.org/2000/svg"
 width="329.821102pt" height="130.523819pt" viewBox="0 0 329.821102 130.523819"
 preserveAspectRatio="xMidYMid meet">
<metadata>
Created by potrace 1.12, written by Peter Selinger 2001-2015
</metadata>
<g transform="translate(-80.999241,345.523819) scale(0.100000,-0.100000)"
fill="#000000" stroke="none">
<path d="M3433 3422 c4 -20 9 -63 13 -95 6 -50 11 -60 32 -68 14 -5 26 -8 28
-7 1 2 13 32 27 68 l25 65 6 -45 c3 -25 7 -56 8 -70 2 -19 10 -26 29 -28 25
-3 29 3 63 88 20 49 36 92 36 95 0 3 -8 5 -19 5 -14 0 -24 -16 -41 -62 -13
-35 -26 -67 -30 -71 -4 -5 -11 26 -15 68 -7 74 -7 76 -33 73 -21 -3 -29 -12
-46 -65 -12 -34 -24 -64 -27 -68 -4 -3 -10 28 -14 69 -5 63 -10 75 -27 79 -18
5 -20 2 -15 -31z"/>
<path d="M3203 3395 c-27 -19 -34 -49 -16 -74 11 -17 25 -21 67 -21 37 0 56
-4 59 -14 10 -26 -19 -39 -69 -31 -36 5 -45 4 -42 -7 7 -21 50 -39 78 -32 45
10 70 33 70 63 0 39 -22 54 -83 55 -37 1 -52 5 -52 15 0 23 32 38 53 24 12 -7
24 -8 33 -2 12 8 11 12 -5 24 -25 19 -66 19 -93 0z"/>
<path d="M3788 3277 c-61 -47 -75 -63 -67 -73 9 -11 15 -11 32 1 18 13 23 12
49 -7 20 -14 28 -27 25 -39 -4 -16 18 -48 27 -38 3 4 46 185 46 194 0 3 -8 8
-17 13 -14 8 -35 -4 -95 -51z m66 -25 c-7 -33 -18 -39 -44 -22 -13 8 -10 14
15 34 17 13 31 23 33 22 1 -2 -1 -17 -4 -34z"/>
<path d="M1235 3323 c-198 -17 -333 -90 -392 -211 -23 -48 -28 -73 -31 -163
-5 -123 10 -189 57 -260 30 -44 31 -44 97 -49 39 -3 69 -10 71 -17 3 -9 -26
-11 -111 -10 l-116 2 0 -213 0 -213 413 3 412 3 84 29 c102 36 176 98 212 178
21 46 24 68 24 168 0 131 -14 172 -87 255 l-40 45 -189 0 -190 0 35 -31 c79
-69 65 -177 -27 -214 -151 -61 -275 117 -159 228 42 40 106 48 397 47 l260 -1
0 213 0 213 -340 1 c-187 0 -358 -1 -380 -3z"/>
<path d="M2060 2905 l0 -415 150 0 149 0 3 125 3 126 75 -126 75 -125 153 0
c120 0 152 3 146 13 -5 6 -51 80 -103 162 -51 83 -94 155 -94 160 1 6 39 79
87 162 47 84 86 157 86 163 0 6 -55 10 -148 10 l-148 0 -65 -121 -64 -121 -3
201 -2 201 -150 0 -150 0 0 -415z"/>
<path d="M3962 3134 c-59 -45 -71 -58 -62 -69 10 -12 17 -11 41 7 l29 22 35
-34 c31 -30 38 -33 62 -24 16 5 32 21 37 37 8 23 5 34 -20 69 -16 23 -33 43
-39 45 -5 1 -43 -22 -83 -53z m98 -15 c25 -45 -15 -68 -44 -24 -15 22 -15 25
2 34 25 15 30 14 42 -10z"/>
<path d="M2950 3053 c-84 -33 -90 -145 -10 -185 131 -66 271 53 181 154 -26
29 -35 32 -92 35 -35 1 -71 0 -79 -4z"/>
<path d="M3260 2573 l0 -418 142 2 143 2 3 415 2 416 -145 0 -145 0 0 -417z"/>
<path d="M3572 2574 l3 -415 143 -2 142 -2 0 418 0 417 -145 0 -145 0 2 -416z"/>
<path d="M2887 2804 c-4 -4 -7 -153 -7 -331 l0 -323 135 0 135 0 -2 328 -3
327 -126 3 c-69 1 -128 -1 -132 -4z"/>
</g>
</svg>
